<svg xmlns="http://www.w3.org/2000/svg" viewBox="0 0 706.33 361.94"><title>资源 3</title><g id="图层_2" data-name="图层 2"><g id="图层_2-2" data-name="图层 2"><path d="M70.44,1.27A147.33,147.33,0,0,0,46.12,6.68,142,142,0,0,1,70.44,1.27Z" fill="none" stroke="#fff" stroke-miterlimit="10"/><path d="M206.17,305.19q9.56.29,18.9,1.34h0q-9.34-1.05-18.9-1.34Z" fill="#231815"/><path d="M151.42,55.68c-5.74,12.16-7.19,25.26-7.19,42.64,0,18.24,1.54,33.39,7.19,46.75h-5.65c-7.53-17-12.16-32.54-12.16-46.75,0-13.1,4.63-27.23,12.16-42.64Z" fill="#168d46"/><path d="M227.26,137.18a73.72,73.72,0,0,0-11.14,3.07,56.62,56.62,0,0,1-20.25,3.58c-23.82.3-44.26-19.73-44-43.15-.3-23.82,18.81-44.27,45.7-44.27a64.2,64.2,0,0,1,18.51,2.87,32.33,32.33,0,0,0,6.54,1.43,25,25,0,0,0,2.76-.21h-.1c1.74-.41,2.66-.1,2.66,1.64a18.29,18.29,0,0,0-.11,2.35c0,.82,0,1.84.11,3.17,0,.41.1.92.1,1.33.1,1.43.1,3.06.1,3.68,0,1.23-.71,3.27-1.74,3.27s-1.84-.92-2.66-2.15c-2.55-3.78-5.21-7-8.48-8.69h.1a35,35,0,0,0-15.74-3.68c-21.37,0-35,15.65-35,36.6-.2,20.76,14.31,40.9,32.41,40.9,5.21,0,19.43-3.27,20.55-11.66,0-.61,0-2.35-.1-3.27-.1-4.6-.21-7.77-.31-9.71-.2-3.17-.61-5.73-1.23-7a11.81,11.81,0,0,0-4.7-4.91v-.51c5.22.51,9.31.71,12,.71,1.64,0,5.73-.41,8.39-.61.41,0,2-.1,2.35-.1l-.1.41c-3.38,1.74-4.3,5.11-4.81,21v10.53C229.1,135,228.69,136.87,227.26,137.18Z" fill="#1f2020"/><path d="M240.58,142.91v-.62a11.12,11.12,0,0,0,5.93-9.4c.11-6.85.21-18.41.21-31,0-10.53-.31-21.67-.82-31.9-.31-5-1.53-8.89-5.93-11.86v-.51c5.21.51,9.3.72,12,.72,1.54,0,3.89-.11,6.95-.41.72,0,1.44-.1,1.95-.1a12.69,12.69,0,0,0,3-.31v.61c-3.78,1.94-5.21,6.65-5.62,12.27,0,.72-.1,1.53-.1,2.25-.11,2.14-.21,4.5-.21,8.48-.1,3.17-.1,10-.1,20.45,0,9.51.31,19.73.82,30.67.3,4.6,2.14,8.29,6.13,10v.62c-4.39-.31-9.3-.62-12.57-.62C249.07,142.29,245.08,142.5,240.58,142.91Z" fill="#1f2020"/><path d="M346.12,137.18A73.86,73.86,0,0,0,335,140.25a56.61,56.61,0,0,1-20.24,3.58c-23.82.3-44.27-19.73-44-43.15-.31-23.82,18.81-44.27,45.7-44.27A64.12,64.12,0,0,1,335,59.28a32.47,32.47,0,0,0,6.54,1.43,25,25,0,0,0,2.76-.21h-.1c1.74-.41,2.66-.1,2.66,1.64a20.11,20.11,0,0,0-.1,2.35c0,.82,0,1.84.1,3.17,0,.41.1.92.1,1.33.11,1.43.11,3.06.11,3.68,0,1.23-.72,3.27-1.74,3.27s-1.84-.92-2.66-2.15c-2.56-3.78-5.22-7-8.49-8.69h.11a35,35,0,0,0-15.75-3.68c-21.37,0-35,15.65-35,36.6-.21,20.76,14.31,40.9,32.4,40.9,5.22,0,19.43-3.27,20.55-11.66,0-.61,0-2.35-.1-3.27-.1-4.6-.2-7.77-.3-9.71-.21-3.17-.62-5.73-1.23-7a11.88,11.88,0,0,0-4.7-4.91v-.51c5.21.51,9.3.71,12,.71,1.63,0,5.72-.41,8.38-.61.41,0,2.05-.1,2.35-.1l-.1.41c-3.37,1.74-4.29,5.11-4.8,21v10.53C348,135,347.55,136.87,346.12,137.18Z" fill="#1f2020"/><path d="M430.61,131.87c2.15,5.31,5.22,8.79,9.31,10.42V143a79.84,79.84,0,0,0-12.27-1.13A92.36,92.36,0,0,0,414.56,143v-.82a11.39,11.39,0,0,1,1.64-2.76,7.36,7.36,0,0,0,1.63-3.89,14.84,14.84,0,0,0-.71-4c-2.66-7.16-5.32-14.72-8-21.88H410c-5.21-.51-9.71-.72-13.39-.72a123,123,0,0,0-14.11.72h.81c-3,7.87-6.13,15.85-9.09,23.72a15.56,15.56,0,0,0-1.13,4.8,5.92,5.92,0,0,0,1.84,4.3V143a61.34,61.34,0,0,0-19.42-.1l.51-.51c4.91-1.64,8.89-6,11.35-11,8.07-19.74,16.66-40.08,24.74-59.82a8.15,8.15,0,0,0,.2-1.73c0-4.2-3.27-8.8-7.77-11.76l-.2-.51c3.78.41,9.51.61,13.29.61h3.68l4.7,12Zm-23.72-27.61H407c-3.68-9.61-6.55-16.76-10.23-26.38-3.57,8.8-7.26,17.59-10.84,26.38H386v.51h-.92c3.68.21,7.36.31,11.24.31s7.67-.1,11.45-.31h-.92v-.51Z" fill="#1f2020"/><path d="M453.68,55.68c7.53,15.41,12.15,29.54,12.15,42.64,0,14.21-4.62,29.71-12.15,46.75H448c5.65-13.36,7.19-28.51,7.19-46.75,0-17.38-1.46-30.48-7.19-42.64Z" fill="#168d46"/><path d="M290.62,223.45c-1.94-.55-3.46-1-3.6-1-4.14-1.24-5.11-3.73-5.11-8.56a6.2,6.2,0,0,0-.14-1.11,64,64,0,0,1-1-9.68c0-2.21,1.39-4.84,3.73-4.84.69,0,1.8.83,2.35,2.36,1.39,3.87,2.63,7.19,4.84,9.95a32.35,32.35,0,0,0,9.4,7.05c4.7,1.79,14,2.9,16.86,2.9,9.13,0,20.47-7.19,20.47-20.18,0-12-10.92-18.67-20.74-24.47-2.49-1.52-5.53-3.18-7.74-4.7-12.86-8.71-25.16-16.45-25.16-31.52,0-14.24,10.09-29,31-29a62.26,62.26,0,0,1,9.26,1.11,47.62,47.62,0,0,0,8.57,1.24,12.62,12.62,0,0,0,2.63-.69h-.14a11.12,11.12,0,0,1,4.14-.83c1.52,0,2.22.41,2.22,1.24,0,2.36.27,5.81.69,10.1s.55,7.32.55,9.4a2.8,2.8,0,0,1-2.49,2.35c-1.52,0-3-1.53-4.56-4.43a33.76,33.76,0,0,0-4.42-6.91,31.25,31.25,0,0,0-18.11-6.5c-7.6,0-15.9,7.33-15.9,15.62,0,11.89,8.85,18.25,18.25,24.75,1.11.83,2.21,1.52,3.32,2.35a80.84,80.84,0,0,0,9.12,6.08c12,7.6,23.77,15.07,23.77,28.62,0,18.66-12.3,32.76-37.18,32.76A100.26,100.26,0,0,1,290.62,223.45Z" fill="#1f2020"/><path d="M419.14,168.22a23.61,23.61,0,0,0-6.65-6.48,31.14,31.14,0,0,0-13.65-2.94c-18.06,0-29.55,13.22-29.55,30.93-.26,17.45,13.48,34.29,28.51,34,6.91,0,17.37-2.59,22.81-7.52.34-.43,1.21-1.47,2.07-2.59a3.09,3.09,0,0,1,1.9-1.3c.95,0,1.38.18,1.38.52,0,.61-.69,2.25-2.42,5.7a20.31,20.31,0,0,0-1,1.91,7.23,7.23,0,0,1-3.63,3.28c-7,3.45-14,4.75-23.32,4.75-20.13.26-37.4-16.67-37.14-36.46-.26-20.12,16.06-37.66,38.61-37.4a85.93,85.93,0,0,1,15,1.72l1.38.26a26.26,26.26,0,0,0,5,.78,4.35,4.35,0,0,0,1-.26h-.09a2.58,2.58,0,0,1,1.21-.26c1.39,0,1.56,1.56,1.56,4.06,0,.78.09,2.16.26,4.06,0,.44.08.87.08,1.3a18.05,18.05,0,0,1,.09,2.07,1.29,1.29,0,0,1-1.47,1.47C420.61,169.77,419.65,168.91,419.14,168.22Z" fill="#1f2020"/><path d="M430,227.65v-.52a9.4,9.4,0,0,0,5-7.94c.09-5.79.18-15.55.18-26.18,0-8.9-.26-18.31-.69-26.95-.26-4.24-1.3-7.52-5-10v-.44c4.4.44,7.86.61,10.1.61,1.3,0,3.29-.09,5.88-.35.6,0,1.21-.08,1.64-.08a10.89,10.89,0,0,0,2.51-.26V156c-3.2,1.64-4.41,5.61-4.76,10.37,0,.6-.08,1.29-.08,1.89-.09,1.82-.17,3.8-.17,7.17-.09,2.68-.09,8.47-.09,17.28,0,8,.26,16.67.69,25.92.26,3.88,1.81,7,5.19,8.46v.52c-3.72-.26-7.87-.52-10.63-.52C437.12,227.13,433.75,227.31,430,227.65Z" fill="#1f2020"/><path d="M457.42,227.39c-.34,0-.69.09-1,.09l-1.64.08v-1.12c2.77-1.38,6.39-6.74,6.39-10.45v-2.16c.09-3.46.18-6.48.18-8.81V192.75c0-8.9-.26-18.31-.69-26.95-.26-3.63-2.25-7.17-6.66-9.51l-.17-.69,1.47.09c.35,0,.78.09,1.12.09,4.93.43,9.51.77,11.58.77,1.81,0,4.92-.08,9.68-.34l2.41-.17c4-.26,7.43-.44,9.25-.44,5.44,0,9.33.35,9.33,1.82a34.36,34.36,0,0,0,.43,4.66,31.94,31.94,0,0,1,.26,3.37c0,.52-.43.78-1.38.78A2,2,0,0,1,496,165l-.26-.52h.09a4.61,4.61,0,0,1-.43-.69h.09c-1.73-2.51-5.88-4.49-14.09-4.49-1,0-2.93.08-5.44.34-1.3.09-2.42.18-3.37.27-.51,0-.95.08-1.38.08h.43a20.48,20.48,0,0,0-.6,4.58c0,.51-.09,1-.09,1.55-.09,2.33-.17,4.93-.26,7.78s-.08,7.6-.08,14.34c1.38,0,2.85,0,5.09.08.87,0,2.34.09,2.94.09a25.78,25.78,0,0,0,2.59.09c.95,0,1.9,0,3.37-.09,3.63-.17,6.74-1.21,9.16-5H496a5.71,5.71,0,0,0-.18,1.21,6.57,6.57,0,0,0-.08,1.21,31.32,31.32,0,0,0-.35,4.92V194a14.94,14.94,0,0,0,.09,1.82c0,.43.08.95.08,1.55h-2.24c-1.64-3.28-5.27-4.49-9.42-4.75-1.72-.17-4-.26-6.82-.26-1.9,0-4.23.09-6.65.17h.26c0,4.06.08,7.78.17,11.15.08,3.19.26,7.69.52,12.26.26,6.31,8.29,7.61,14.34,7.61,4.92,0,8.38-.52,11.57-3a52.56,52.56,0,0,0,4.93-5.44c1.29-1.47,2.24-2.24,3-2.24,1.12,0,1.64.25,1.64.77,0,.86-.6,2.07-2.07,4.58a21.49,21.49,0,0,0-2.42,5.53c-.6,2.07-1.47,3.28-6,3.28h-13c-3.63,0-6.83,0-9.59-.08h-7.77C463.73,226.88,461.05,227.13,457.42,227.39Z" fill="#1f2020"/><path d="M562.82,155.26c.17,0,.61.09.86.09.52.08,1,.17,1.73.25a22.94,22.94,0,0,0,3.28.44c1.3,0,3.28-.09,5.88-.35.6,0,1.21-.09,1.64-.09a11.19,11.19,0,0,0,2.5-.25v.51c-3.19,1.56-4.49,5.62-4.75,10.37-.17,2.42-.26,4.49-.26,9.07,0,3.89,0,18.23-.17,26.61-.08,4.23-.08,9.07-.08,11.49,0,4.14.08,7.42.17,9.93a8.52,8.52,0,0,0,.08,1.47c.09,1.38.09,2.24.09,2.68a1.43,1.43,0,0,1-1.64,1.64c-.78,0-2-1-3.28-2.51-15.12-17.45-31.54-36.36-46.74-54-.09,2.33-.09,5-.09,8,0,1.47,0,3.55.09,11.93,0,8,.17,16.67.69,25.91.26,3.89,1.81,7,5.18,8.47v.52c-3.71-.26-7.86-.52-10.62-.52-1.64,0-2.33,0-3.2.08-.35,0-.43.09-.95.09a3.38,3.38,0,0,1-1,.09c-.26,0-1.39.09-1.65.09v-.44a9.39,9.39,0,0,0,5-7.94c.09-5.79.18-15.55.18-26.18,0-1.47,0-4.41.08-8.81.09-3.8.09-6.91.09-9.33,0-3.54-.09-6.48-.17-9V165c-.35-3.89-1.56-7-5.27-9.42l-.18-.6c.95.09,2.77.26,3.54.35,2.34.25,4.67.34,6.57.43l46.74,55.29c.09-4.32.09-10.46.09-18.41,0-8.89-.26-18.31-.69-26.95-.27-4.58-.87-7.6-4.59-10v-.43Z" fill="#1f2020"/><path d="M656.91,227.39c-.34,0-.69.09-1,.09l-1.64.08v-1.12c2.76-1.38,6.39-6.74,6.39-10.45v-2.16c.08-3.46.17-6.48.17-8.81V192.75c0-8.9-.26-18.31-.69-26.95-.26-3.63-2.25-7.17-6.65-9.51l-.17-.69,1.46.09c.35,0,.78.09,1.13.09,4.92.43,9.5.77,11.57.77,1.82,0,4.93-.08,9.68-.34l2.42-.17c4-.26,7.43-.44,9.24-.44,5.44,0,9.33.35,9.33,1.82a34.36,34.36,0,0,0,.43,4.66,31.94,31.94,0,0,1,.26,3.37c0,.52-.43.78-1.38.78a2,2,0,0,1-1.9-1.21l-.26-.52h.09a4.6,4.6,0,0,1-.44-.69H695c-1.73-2.51-5.87-4.49-14.08-4.49-1,0-2.94.08-5.44.34-1.3.09-2.42.18-3.37.27-.52,0-1,.08-1.38.08h.43a21,21,0,0,0-.61,4.58c0,.51-.08,1-.08,1.55-.09,2.33-.18,4.93-.26,7.78s-.09,7.6-.09,14.34c1.38,0,2.85,0,5.1.08.86,0,2.33.09,2.93.09a25.88,25.88,0,0,0,2.6.09c.94,0,1.9,0,3.37-.09,3.62-.17,6.73-1.21,9.15-5h2.16a6.41,6.41,0,0,0-.17,1.21,5.85,5.85,0,0,0-.09,1.21,31.3,31.3,0,0,0-.34,4.92V194a16.79,16.79,0,0,0,.08,1.82c0,.43.09.95.09,1.55h-2.25c-1.64-3.28-5.27-4.49-9.41-4.75-1.73-.17-4-.26-6.83-.26-1.9,0-4.23.09-6.65.17h.26c0,4.06.09,7.78.17,11.15.09,3.19.26,7.69.52,12.26.26,6.31,8.3,7.61,14.34,7.61,4.93,0,8.38-.52,11.58-3a52.81,52.81,0,0,0,4.92-5.44c1.3-1.47,2.25-2.24,3-2.24,1.12,0,1.64.25,1.64.77,0,.86-.61,2.07-2.08,4.58a21.85,21.85,0,0,0-2.42,5.53c-.6,2.07-1.46,3.28-6,3.28h-13c-3.63,0-6.82,0-9.59-.08h-7.77C663.22,226.88,660.54,227.13,656.91,227.39Z" fill="#1f2020"/><path d="M492.8,68.68c4.18-7.53,10.12-14,16.23-14,5.61,0,8.54,3.35,7.28,12.55l-2.93,21.58c-.5,3.85.59,4.61,2,4.61s4.1-1.68,6.86-8l1.92.92c-2.34,6.69-6.27,11.79-12.8,11.79-6.27,0-6.94-4.76-6.35-9.37l2.84-21.33c.59-4.43,0-6.94-3.1-6.94-4.1,0-12.21,9.37-13.55,18.82l-2.51,18h-8.36l4.51-33.22c.5-3.84-.5-4.6-1.92-4.6s-4.1,1.59-6.86,8l-1.93-.92c2.35-6.69,6.28-11.88,12.8-11.88,6.28,0,6.86,4.85,6.28,9.37l-.59,4.6Z" fill="#1f2020"/><path d="M636.18,235.46c-2.09-5.09-9-17.82-9-17.82s6.71,2.31,13.43,14.58C641.23,233.42,636.69,236.73,636.18,235.46Z" fill="#168d46"/><path d="M597.57,221.05s5.23,2.63,13.6-.08c2.2-.71,8.24-3.28,10.53-3.48,1.75-.15,6.46.95,5.13,2.08-1.58,1.36-14.75,4.53-17,5A12.28,12.28,0,0,1,597.57,221.05Z" fill="#168d46"/><path d="M582.72,199c-.6,4.4,4.08,8.51,8.86,10.25,2.83,1,15.69.57,15.8.7l-.09-3.74c-1.87.17-5.94.11-7.81.18C588.09,206.77,585,203.51,582.72,199Z" fill="#168d46"/><path d="M582.54,200.38s-3.33-9.11,1.57-14.84c3-3.56,10.16-6.34,10.16-6.34l.08,2.52a33.62,33.62,0,0,0-8.77,6.25C581.46,192.18,582.54,200.38,582.54,200.38Z" fill="#168d46"/><path d="M595,196.05c.36-1.15.85-2.27,1.28-3.39-1,.91-4.32-.73-5.41-1.14a9.75,9.75,0,0,1-5.91-5.24,25.14,25.14,0,0,1-1.17-4.43c-.12-.62-.63-1.87-.44-2.48-1.4,4.6-1.27,9.91,3.26,12.63A76.25,76.25,0,0,0,595,196.05Z" fill="#168d46"/><path d="M583.07,179.89c.52-11.55,17.71-11.55,17.71-11.46v1.48C587,169,583,179.26,583.07,179.89Z" fill="#168d46"/><path d="M590.62,180.93l.26-10.07,1-.35s-.13,3.19-.09,4.25a7.87,7.87,0,0,0,.26,2.83,11.29,11.29,0,0,0,2.26,1.86Z" fill="#168d46"/><path d="M590.1,170.17s1.82-5,4.6-6.86c4.31-2.83,10.25-2.87,10.25-2.87l-.26,1.13s-5.44-.7-9.56,2.52A24.86,24.86,0,0,0,590.1,170.17Z" fill="#168d46"/><path d="M600.78,169.91l3.91-8.34-1.22-.78a17,17,0,0,0-3.13,7.38A6.58,6.58,0,0,0,600.78,169.91Z" fill="#168d46"/><path d="M604.34,160.53a12.62,12.62,0,0,1,8.07-4.86c3.3-.44,8.51,1,8.51,1l-1.47,1s-5.28-1.32-7-1C610.19,156.89,604.34,160.53,604.34,160.53Z" fill="#168d46"/><path d="M604.69,161.57s5.79,2.65,7.81,2.35c3.47-.52,8.07-5.82,8.07-5.82v-1s-4.86,3.91-8,5.21c-1.82.76-7.64-1.91-7.64-1.91Z" fill="#168d46"/><path d="M619.45,157.58s6.65,5,9.24,4.77c3.78-.3,8-3.56,8-3.56l-2.86-.39s-3.61,2.68-5,2.69c-2.53,0-6.73-4.55-9-4.55C619.48,156.54,619.45,157.58,619.45,157.58Z" fill="#168d46"/><path d="M620.58,156.75a17.77,17.77,0,0,1,8-2.21c4.61,0,8.12,4.25,8.12,4.25l-2.86-.39v-1.17s-1-1.7-5.3-1.87c-2.26-.08-5.6,1.26-7.34,1.65C620.62,157.14,620.58,156.75,620.58,156.75Z" fill="#168d46"/><path d="M646.1,157.32s.12,1-.13,1a41.75,41.75,0,0,0-9.72.3s-.8-.48-.61-.56C638.2,156.84,646.1,157.32,646.1,157.32Z" fill="#168d46"/><path d="M636,159c1.43,2.56,6.85,5.77,6.85,5.77l.66-.78s-5.3-3.56-5.65-5.17c0-.23.91-.43.91-.43l-3,.13A3.15,3.15,0,0,0,636,159Z" fill="#168d46"/><rect x="638.23" y="159.77" width="4.05" height="0.35" transform="translate(381.15 766.88) rotate(-80.91)" fill="#168d46"/><rect x="640.48" y="160.58" width="6.44" height="0.35" transform="translate(267.18 707.03) rotate(-69.44)" fill="#168d46"/><rect x="626.28" y="158.21" width="6.43" height="0.35" transform="translate(347.45 743.03) rotate(-78.37)" fill="#168d46"/><rect x="625.66" y="155.36" width="0.35" height="5.12" fill="#168d46"/><rect x="613.31" y="158.83" width="5.26" height="0.35" transform="translate(303.74 713.26) rotate(-75.08)" fill="#168d46"/><rect x="611.78" y="155.98" width="0.35" height="7.3" transform="translate(-7.64 32.84) rotate(-3.06)" fill="#168d46"/><rect x="608.18" y="158.03" width="0.35" height="4.53" transform="translate(-17.96 219.66) rotate(-20.18)" fill="#168d46"/><rect x="600" y="161.4" width="0.35" height="7.55" fill="#168d46"/><rect x="596.9" y="162.81" width="0.69" height="7.15" transform="translate(53.38 464.04) rotate(-44.26)" fill="#168d46"/><rect x="588.8" y="172.36" width="0.69" height="5.04" transform="matrix(0.67, -0.74, 0.74, 0.67, 63.79, 493.75)" fill="#168d46"/><rect x="587.53" y="174.46" width="0.7" height="8.61" transform="translate(291.41 716.97) rotate(-78.07)" fill="#168d46"/><rect x="582.51" y="191.48" width="4.73" height="0.69" transform="translate(-1.85 5.74) rotate(-0.56)" fill="#168d46"/><rect x="581.95" y="196.15" width="12.17" height="0.7" transform="translate(-30.8 234.39) rotate(-21.98)" fill="#168d46"/><rect x="584.84" y="200.42" width="10.74" height="0.7" transform="translate(29.59 473.45) rotate(-44.72)" fill="#168d46"/><rect x="591.78" y="211.22" width="9.94" height="0.69" transform="translate(-25.53 328.37) rotate(-30.15)" fill="#168d46"/><rect x="593.51" y="214.44" width="15.46" height="0.7" transform="translate(12.29 461.28) rotate(-42.37)" fill="#168d46"/><rect x="600.87" y="218.5" width="9.65" height="0.69" transform="matrix(0.64, -0.77, 0.77, 0.64, 50.53, 545.26)" fill="#168d46"/><rect x="612" y="226.46" width="15.23" height="0.69" transform="translate(106.19 641.24) rotate(-59.02)" fill="#168d46"/><path d="M621.49,237.37a.32.32,0,0,1-.19-.05.34.34,0,0,1-.1-.48l9.46-14.46a.35.35,0,0,1,.58.38l-9.46,14.46A.35.35,0,0,1,621.49,237.37Z" fill="#168d46"/><path d="M597.75,223c-4.13-1.62-6.83-6.61-7.56-10.73a18.66,18.66,0,0,1-.22-4.09,18.17,18.17,0,0,1,2-8c1.11-2.21,2.27-4.37,3.55-6.48.07-.12.83-1.1.76-1.25l1.83,4.51a53.65,53.65,0,0,0-2.93,4.81,15.79,15.79,0,0,0-2.08,8.25C593.1,215.08,594.9,218.81,597.75,223Z" fill="#168d46"/><path d="M620,236.85s-5.16-4-6.08-13.28c-1.1-11.06-5.81-19.15-6.4-17.4-.69,2.09,1.19,17.83,1.59,20.26C610.5,235,620,236.85,620,236.85Z" fill="#168d46"/><path d="M396.74,305.23a102.8,102.8,0,0,1-8.91-11.71c-3.34-5-7.12-10.87-9.16-14.45-4,0-9.52,1-13.81,1.72a9,9,0,0,1,5,4.22c3.67,6,7.62,13.09,11.88,19,4.71,6.64,9.1,9,18.5,9.54,1.45.12,2.72.21,4.06.21h0a4.11,4.11,0,0,0-2.28-4.33A17.82,17.82,0,0,1,396.74,305.23Z" fill="#231815"/><path d="M366.51,280.79h-8c.08,7.56.34,17.47.69,23.55.35,4.78,1.74,6.86,5.22,8.51v.52c-3.74-.26-7.91-.52-10.69-.52-3.13,0-7.73.18-10.95.52v-.6c3.3-1.66,6-4.61,6.17-7.91.09-5.82.17-15.64.17-26.33,0-8.95-.26-18.42-.69-27.1-.26-4.35-1.39-7.21-5.39-9.39v-.61a99.52,99.52,0,0,0,10.51.61c1.31,0,3.91-.17,7-.34,4-.18,8.69-.44,11.47-.44,12.25,0,22.59,7,22.59,19.46,0,10.52-6.78,16.34-17.72,18.77C376.94,279.49,368.65,280.79,366.51,280.79Zm-7.73-27.19c-.09,1.74-.18,3.65-.18,6.78v16.33h6.95c8.26,0,18.68-5,18.68-16.6,0-10.68-7.47-15-16.94-15-1.21,0-6.6.18-8.43.44h.7A14.24,14.24,0,0,0,359,250c-.09,1-.09,1.56-.09,1.82C358.86,252.38,358.78,253,358.78,253.6Z" fill="#1f2020"/><path d="M410.29,313.55c-.35,0-.69.08-1,.08l-1.65.09v-1.13c2.78-1.39,6.43-6.78,6.43-10.51v-2.17c.08-3.48.17-6.52.17-8.86V278.71c0-8.95-.26-18.42-.69-27.11-.26-3.65-2.26-7.21-6.69-9.56l-.18-.69,1.48.08c.35,0,.78.09,1.13.09,4.95.44,9.56.78,11.64.78,1.83,0,4.95-.08,9.73-.34l2.44-.18c4-.26,7.47-.43,9.29-.43,5.48,0,9.39.35,9.39,1.82a34.61,34.61,0,0,0,.43,4.69,32.43,32.43,0,0,1,.26,3.39c0,.52-.43.78-1.39.78a2,2,0,0,1-1.91-1.21l-.26-.52H449a4.74,4.74,0,0,1-.44-.7h.09c-1.74-2.52-5.91-4.52-14.16-4.52-1.05,0-3,.09-5.48.35l-3.39.26c-.52,0-.95.09-1.39.09h.44a21.09,21.09,0,0,0-.61,4.6c0,.53-.09,1.05-.09,1.57q-.12,3.51-.26,7.82c-.08,2.86-.08,7.64-.08,14.42,1.39,0,2.86,0,5.12.09.87,0,2.35.08,3,.08a25.88,25.88,0,0,0,2.6.09c1,0,1.91,0,3.39-.09,3.65-.17,6.78-1.21,9.21-5H449a6.51,6.51,0,0,0-.17,1.22,6,6,0,0,0-.09,1.22,31.61,31.61,0,0,0-.35,4.95v3.21a15,15,0,0,0,.09,1.83c0,.43.09.95.09,1.56h-2.26c-1.65-3.3-5.3-4.52-9.47-4.78-1.74-.17-4-.26-6.86-.26-1.92,0-4.26.09-6.7.18h.27c0,4.08.08,7.82.17,11.2.09,3.22.26,7.74.52,12.34.26,6.34,8.34,7.65,14.42,7.65,5,0,8.43-.52,11.64-3a52.43,52.43,0,0,0,5-5.48c1.3-1.47,2.26-2.26,3-2.26,1.13,0,1.65.26,1.65.79,0,.87-.61,2.08-2.09,4.6a21.7,21.7,0,0,0-2.43,5.56c-.61,2.09-1.48,3.3-6.08,3.3H436.27c-3.65,0-6.86,0-9.64-.08h-7.82C416.63,313,413.94,313.29,410.29,313.55Z" fill="#1f2020"/><path d="M469.63,312.16c-1.22-.35-2.17-.61-2.26-.61-2.61-.78-3.22-2.35-3.22-5.39a4.19,4.19,0,0,0-.08-.69,39.7,39.7,0,0,1-.61-6.08c0-1.39.87-3.05,2.34-3.05.44,0,1.13.53,1.48,1.48a21.09,21.09,0,0,0,3,6.26,20.5,20.5,0,0,0,5.91,4.43,41.63,41.63,0,0,0,10.6,1.82c5.73,0,12.86-4.52,12.86-12.68,0-7.56-6.87-11.73-13-15.38-1.57-1-3.48-2-4.87-2.95C473.71,273.84,466,269,466,259.51c0-8.95,6.34-18.25,19.46-18.25a38.37,38.37,0,0,1,5.82.7,30.15,30.15,0,0,0,5.39.78,7.8,7.8,0,0,0,1.65-.44h-.09a7.14,7.14,0,0,1,2.61-.52c.95,0,1.39.26,1.39.78,0,1.48.17,3.65.43,6.35s.35,4.6.35,5.9a1.75,1.75,0,0,1-1.56,1.48c-1,0-1.92-1-2.87-2.78a21.11,21.11,0,0,0-2.78-4.34,19.61,19.61,0,0,0-11.38-4.09c-4.78,0-10,4.61-10,9.82,0,7.47,5.56,11.47,11.46,15.55.7.52,1.39,1,2.09,1.48a50.26,50.26,0,0,0,5.73,3.82c7.56,4.78,14.95,9.47,14.95,18,0,11.73-7.73,20.59-23.37,20.59A63.32,63.32,0,0,1,469.63,312.16Z" fill="#1f2020"/><path d="M518.28,312.16c-1.22-.35-2.17-.61-2.26-.61-2.61-.78-3.22-2.35-3.22-5.39a4.19,4.19,0,0,0-.08-.69,39.7,39.7,0,0,1-.61-6.08c0-1.39.87-3.05,2.34-3.05.44,0,1.13.53,1.48,1.48a21.09,21.09,0,0,0,3,6.26,20.5,20.5,0,0,0,5.91,4.43,41.63,41.63,0,0,0,10.6,1.82c5.73,0,12.86-4.52,12.86-12.68,0-7.56-6.87-11.73-13-15.38-1.57-1-3.48-2-4.87-2.95-8.08-5.48-15.81-10.34-15.81-19.81,0-8.95,6.34-18.25,19.46-18.25a38.37,38.37,0,0,1,5.82.7,30.15,30.15,0,0,0,5.39.78,7.8,7.8,0,0,0,1.65-.44h-.09a7.14,7.14,0,0,1,2.61-.52c.95,0,1.39.26,1.39.78,0,1.48.17,3.65.43,6.35s.35,4.6.35,5.9a1.75,1.75,0,0,1-1.56,1.48c-1,0-1.91-1-2.87-2.78a21.11,21.11,0,0,0-2.78-4.34,19.61,19.61,0,0,0-11.38-4.09c-4.78,0-10,4.61-10,9.82,0,7.47,5.56,11.47,11.47,15.55.69.52,1.38,1,2.08,1.48a50.26,50.26,0,0,0,5.73,3.82c7.56,4.78,14.95,9.47,14.95,18,0,11.73-7.73,20.59-23.37,20.59A63.32,63.32,0,0,1,518.28,312.16Z" fill="#1f2020"/><path d="M292.56,197.61c5.85-.42,11.85-.84,14.77-.84,19,0,36.53,12.13,36.53,31.22,0,22.73-21.05,33.46-41.82,33.46-3.63,0-9.2-.7-12.41-2.93v-3.2a53.4,53.4,0,0,0,11.85,2.09c17.42-.28,25.65-12.13,25.65-30.39,0-15.75-13.38-24.12-27.46-24.12-2.37,0-11.85,1-11.85,1-.56,1.25-.84,3.62-1,7.11-.14,1.53-.14,2.51-.14,2.93,0,1-.14,2.09-.14,3.06-.14,2.93-.27,6.14-.27,11.57-.14,4.32-.14,13.66-.14,27.88,0,17.29.41,31.23,1.11,41.82.7,7.53,7.67,10.73,22.58,13.38v1.12c-6-.42-26.9-.84-31.36-.84-5,0-12.41.28-17.57.84v-1c5.3-2.65,9.62-7.39,9.9-12.68.14-9.34.28-25.09.28-42.24,0-14.36-.42-29.55-1.11-43.49-.42-6.69-2.23-12.41-11.16-15.61v-1.26c1,.14,3.63.42,4.74.56,5,.56,11.16,1.25,14.64,1.25C281.13,198.3,286.7,198,292.56,197.61Z" fill="#1f2020"/><path d="M225.07,276.28v8.17a232.88,232.88,0,0,0-18.9-15.11v-9.45A231.89,231.89,0,0,1,225.07,276.28Z" fill="#168d46"/><path d="M194.55,251.42v10.1q-9.17-5.81-18.9-10.73v-11Q185.4,245.15,194.55,251.42Z" fill="#168d46"/><path d="M164,233.78v11.5q-9.26-4.07-18.9-7.34V225.71Q154.78,229.33,164,233.78Z" fill="#168d46"/><path d="M133.5,221.69v12.66q-9.3-2.62-18.9-4.48v-13.3Q124.2,218.75,133.5,221.69Z" fill="#168d46"/><path d="M250.45,305.12v5.68l-.63-.14q-6.49-1.46-13.13-2.53V288.31Q244,296.38,250.45,305.12Z" fill="#1f2020"/><path d="M145.12,311.29V295.53q9.34-.79,18.9-.83v12.95Q154.44,309.09,145.12,311.29Z" fill="#1f2020"/><path d="M175.65,306.21V294.93q9.56.42,18.9,1.61v8.58Q185,305.27,175.65,306.21Z" fill="#1f2020"/><path d="M206.17,305.19V298.3q9.6,1.69,18.9,4.18v4Q215.73,305.48,206.17,305.19Z" fill="#1f2020"/><path d="M133.5,272.2v12.17c-3.28.12-6.53.3-9.77.56-3.06.24-6.1.53-9.13.89V272q3.38-.11,6.77-.1h.46q5.85,0,11.62.3Z" fill="#168d46"/><path d="M103,272.62v14.87c-1,.16-1.94.33-2.91.52-.81.14-1.61.29-2.42.45s-1.63.31-2.44.48l-1.53.32-1.62.35c-.88.18-1.75.38-2.61.59a3.41,3.41,0,0,0-.46.1l-2.45.58L86,291c-.89.21-1.78.44-2.66.67l-.28.08L82,292l-.41.11c-.45.11-.89.23-1.33.36l-.51.15c-.61.15-1.21.32-1.81.5s-1.34.38-2,.59q-1.85.53-3.66,1.11c-1.13.34-2.25.7-3.35,1.08-.55.17-1.09.35-1.63.54s-1.09.36-1.63.56a1.63,1.63,0,0,0-.31.11q-2.66.9-5.28,1.91c-.85.31-1.69.63-2.53,1a.49.49,0,0,0-.17.06c-.89.34-1.78.7-2.67,1.06s-2,.81-3,1.24l-.33.14c-.85.35-1.7.72-2.55,1.1s-1.82.79-2.72,1.21c0,0,0,0,0,0a1.59,1.59,0,0,0-.27.12c-.66.29-1.32.59-2,.91-.5.23-1,.46-1.51.71-.89.41-1.78.84-2.66,1.27q-6.82,3.35-13.39,7.11V278.91a241.73,241.73,0,0,1,26.22-7.37v10.7c2-.61,3.94-1.19,5.92-1.74,1-.28,2-.54,2.94-.8.77-.21,1.55-.41,2.32-.6l1.24-.32c1.68-.42,3.36-.82,5.06-1.2l2.34-.51,2.35-.49c.58-.13,1.17-.24,1.76-.36l.59-.11c.79-.16,1.58-.3,2.37-.44l1.92-.34c.5-.09,1-.18,1.49-.25l1.7-.28c.67-.11,1.35-.22,2-.31l1.86-.27,2.94-.4q5.77-.75,11.62-1.2Z" fill="#168d46"/><path d="M225.07,296.15v3.21q-4.83-1.85-9.77-3.46-4.53-1.5-9.13-2.8v-5.32c2.43,1,4.84,1.93,7.23,3q5.9,2.53,11.62,5.38Z" fill="#168d46"/><path d="M194.55,283.61v6.5q-4.85-1.11-9.77-2c-3-.57-6.07-1.06-9.13-1.5v-8.35c2.43.57,4.84,1.19,7.23,1.84q5.88,1.61,11.62,3.5Z" fill="#168d46"/><path d="M164,275.8v9.42q-4.86-.45-9.78-.71c-3-.15-6.06-.24-9.12-.28V273.09c2.42.25,4.82.54,7.22.86q5.86.76,11.63,1.84Z" fill="#168d46"/><path d="M84.08,241.89h.73q9.16,0,18.17.7V258h-.46q-9.31,0-18.44.72Z" fill="#1f2020"/><path d="M114.6,258.25V243.78c6.38.8,12.69,1.88,18.9,3.19v13Q124.16,258.74,114.6,258.25Z" fill="#1f2020"/><path d="M145.13,261.84V249.76q9.62,2.55,18.9,5.92v10.46Q154.73,263.61,145.13,261.84Z" fill="#1f2020"/><path d="M175.65,269.64v-9.42q9.67,4.08,18.9,9v7.56Q185.3,272.81,175.65,269.64Z" fill="#1f2020"/><path d="M206.17,282.17v-6.3q9.78,6,18.9,12.82v4Q215.91,287,206.17,282.17Z" fill="#1f2020"/><path d="M72.46,242.21v17.66c-.74.1-1.49.19-2.23.3-1.32.18-2.65.38-4,.59-.51.07-1,.15-1.51.24-.79.12-1.57.25-2.35.39-3.33.57-6.63,1.22-9.92,1.94l-2.15.48c-1.29.29-2.59.6-3.88.92H46.4c-1.3.32-2.6.65-3.9,1-1.1.29-2.19.59-3.28.9-.65.18-1.31.36-2,.56l-2.27.67-3.27,1-2.25.72c-1.07.35-2.15.71-3.21,1.09l-.27.09c-1,.36-2.07.72-3.1,1.1s-2.24.82-3.35,1.24-2.14.82-3.21,1.25-2.36.95-3.53,1.44c-1,.42-2,.84-3,1.28s-2.29,1-3.43,1.52-2.17,1-3.24,1.5l-1.56.74L0,281.61V57.12a146.75,146.75,0,0,1,38.92-6.64V70.91l-1.1.25-1,.26c-1.52.39-3,.8-4.54,1.23l-.87.26q-2.61.77-5.19,1.64h0V249.3q4.65-1.2,9.38-2.22A235.19,235.19,0,0,1,72.46,242.21Z" fill="#1f2020"/><path d="M46.12,361.94V311.7a244,244,0,0,1,26.17-10v12.13a231.52,231.52,0,0,1,61.21-17v17.53A232.89,232.89,0,0,0,46.12,361.94Z" fill="#1f2020"/><path d="M173.8,27.09A144.24,144.24,0,0,0,155.12,21c-.72-.19-1.45-.37-2.18-.53A145.13,145.13,0,0,0,72.73,24l-.38.13a0,0,0,0,0,0,0V211c1.17,0,2.34.1,3.5.16A232.73,232.73,0,0,1,103,214.26v13.67a236.81,236.81,0,0,0-56.86-1.07V6.68A147.33,147.33,0,0,1,70.44,1.27L73.05.94,75.24.71,76.69.57Q83.08,0,89.62,0A143.6,143.6,0,0,1,173.8,27.09Z" fill="#168d46"/></g></g></svg>